<svg width="315" height="323" viewBox="0 0 315 323" fill="none" xmlns="http://www.w3.org/2000/svg">
<path d="M53.9036 254.812L26.219 238.334C19.8938 234.57 11.4415 236.226 7.3424 242.036C3.24262 247.846 5.04765 255.608 11.3735 259.374L39.0582 275.853C45.3689 279.608 53.8253 277.975 57.9347 272.15C62.0338 266.34 60.2288 258.578 53.9036 254.812Z" fill="#4F4C5F"/>
<path d="M153.785 4.73145C147.076 4.73145 141.189 8.64593 138.857 14.424C129.124 38.543 87.9752 51.7797 130.742 97.3144L169.623 48.2222V19.2778C169.623 11.2438 162.532 4.73145 153.785 4.73145Z" fill="#E8A882"/>
<path d="M267.35 4.73145C274.059 4.73145 279.946 8.64593 282.278 14.424C292.011 38.543 333.16 51.7797 290.394 97.3144L251.513 48.2229V19.2778C251.513 11.2438 258.604 4.73145 267.35 4.73145Z" fill="#E8A882"/>
<path d="M137.429 168.996C126.555 221.539 16.8716 199.883 16.8716 306.026C16.8716 312.787 22.8389 318.268 30.2005 318.268H201.292V224.768L137.429 168.996Z" fill="#5C586F"/>
<path d="M118.798 194.592C120.828 199.257 123.278 203.774 126.146 208.09C134.803 221.14 147.004 232.058 161.431 239.664C173.643 246.103 187.268 250.047 201.292 251.259V224.767L137.429 168.996C135.092 180.287 128.191 188.15 118.798 194.592Z" fill="#4F4C5F"/>
<path d="M140.809 199.883C133.262 188.525 128.921 175.181 128.921 160.908V113.108C128.921 71.6946 165.473 38.1228 210.568 38.1228C255.657 38.1228 292.208 71.6946 292.208 113.108V160.908C292.208 175.181 287.868 188.525 280.32 199.883H140.809Z" fill="#6A647F"/>
<path d="M142.722 135.222C142.722 92.0518 170.669 54.8785 210.85 38.1266C210.756 38.1266 210.662 38.1235 210.568 38.1235C165.473 38.1235 128.921 71.6953 128.921 113.109V160.909C128.921 175.181 133.262 188.526 140.809 199.884H166.522C151.596 181.949 142.722 159.539 142.722 135.222Z" fill="#5C586F"/>
<path d="M231.457 154.252C254.421 160.42 272.697 176.798 280.319 199.883C276.928 204.998 272.881 209.718 268.295 213.93C253.52 227.5 233.115 235.893 210.567 235.893C181.018 235.893 155.133 221.477 140.809 199.883C148.431 176.792 166.721 160.419 189.678 154.252H231.457Z" fill="#E8A882"/>
<path d="M231.457 154.252C230.645 164.199 221.603 172.028 210.568 172.028C199.533 172.028 190.491 164.199 189.679 154.252C196.299 152.465 203.314 151.532 210.568 151.532C217.83 151.532 224.837 152.465 231.457 154.252Z" fill="#423E4F"/>
<path d="M177.142 96.2066L167.543 93.634C162.01 92.1515 156.219 95.0181 154.509 100.049C152.745 105.238 156.213 110.801 161.895 112.324L171.228 114.825C176.826 116.325 182.687 113.374 184.321 108.232C185.954 103.091 182.74 97.7062 177.142 96.2066Z" fill="#E8A882"/>
<path d="M243.994 96.2066L253.593 93.634C259.126 92.1515 264.917 95.0181 266.627 100.049C268.391 105.238 264.922 110.801 259.241 112.324L249.908 114.825C244.31 116.325 238.449 113.374 236.815 108.232C235.182 103.091 238.396 97.7062 243.994 96.2066Z" fill="#E8A882"/>
<path d="M88.0893 290.376H68.2628C58.9252 290.376 51.3555 297.328 51.3555 305.905V318.268H91.5359C98.9703 318.268 104.997 312.733 104.997 305.905C104.997 297.328 97.427 290.376 88.0893 290.376Z" fill="#E8A882"/>
<path d="M204.381 290.376H184.555C175.217 290.376 167.647 297.328 167.647 305.905V318.268H207.828C215.262 318.268 221.288 312.733 221.288 305.905C221.288 297.328 213.719 290.376 204.381 290.376Z" fill="#E3986D"/>
<path d="M165.655 290.376H145.829C136.491 290.376 128.921 297.328 128.921 305.905V318.268H169.102C176.536 318.268 182.563 312.733 182.563 305.905C182.563 297.328 174.993 290.376 165.655 290.376Z" fill="#E8A882"/>
<path d="M152.544 178.181C147.49 184.486 143.489 191.767 140.81 199.883C155.134 221.477 181.019 235.893 210.568 235.893C213.513 235.893 216.421 235.747 219.286 235.468C189.43 225.549 165.277 204.7 152.544 178.181Z" fill="#E3986D"/>
<path d="M155.923 132.662V141.376C155.923 143.989 158.23 146.107 161.075 146.107C163.92 146.107 166.226 143.989 166.226 141.376V132.662C166.226 130.049 163.92 127.931 161.075 127.931C158.23 127.931 155.923 130.049 155.923 132.662Z" fill="black"/>
<path d="M254.659 132.662V141.376C254.659 143.989 256.965 146.107 259.81 146.107C262.655 146.107 264.961 143.989 264.961 141.376V132.662C264.961 130.049 262.655 127.931 259.81 127.931C256.965 127.931 254.659 130.049 254.659 132.662Z" fill="black"/>
<path d="M229.177 182.306C226.332 182.306 224.026 184.425 224.026 187.038C224.026 189.137 222.167 190.844 219.882 190.844C217.596 190.844 215.737 189.137 215.737 187.038C215.737 184.425 213.431 182.306 210.586 182.306C207.741 182.306 205.435 184.425 205.435 187.038C205.435 189.137 203.575 190.844 201.29 190.844C199.005 190.844 197.146 189.137 197.146 187.038C197.146 184.425 194.839 182.306 191.994 182.306C182.304 182.306 186.848 200.307 201.29 200.307C204.829 200.307 208.071 199.128 210.586 197.18C213.1 199.128 216.342 200.307 219.882 200.307C234.306 200.308 238.904 182.306 229.177 182.306Z" fill="black"/>
<path d="M189.264 109.557C191.696 101.902 186.919 93.8989 178.584 91.6644L168.984 89.0918C160.823 86.9052 152.122 91.1881 149.591 98.6392C146.948 106.414 152.067 114.619 160.451 116.866L169.784 119.367C178.116 121.599 186.843 117.18 189.264 109.557ZM159.425 101.459C160.295 98.8997 163.286 97.4229 166.099 98.1755L175.698 100.748C178.566 101.517 180.211 104.272 179.374 106.907C178.539 109.535 175.531 111.049 172.669 110.283L163.336 107.782C160.415 106.999 158.524 104.11 159.425 101.459Z" fill="black"/>
<path d="M271.543 98.6392C269.01 91.1882 260.311 86.9046 252.149 89.0918L242.55 91.6645C234.215 93.8983 229.436 101.901 231.869 109.558C234.292 117.183 243.021 121.599 251.349 119.367L260.682 116.866C269.04 114.626 274.193 106.438 271.543 98.6392ZM257.797 107.782L248.464 110.282C245.603 111.049 242.594 109.535 241.759 106.906C240.922 104.272 242.566 101.517 245.435 100.748L255.034 98.1749C257.842 97.4223 260.838 98.8954 261.708 101.458C262.608 104.106 260.723 106.997 257.797 107.782Z" fill="black"/>
<path d="M8.57035 263.345L17.2912 268.535C13.5617 279.567 11.7195 291.969 11.7195 306.026C11.7195 315.385 20.0098 322.999 30.1991 322.999H207.827C218.09 322.999 226.439 315.331 226.439 305.904C226.439 295.371 217.642 286.694 206.443 285.735V240.524C207.815 240.584 209.19 240.624 210.567 240.624C258.865 240.624 297.358 204.613 297.358 160.908V150.859C297.358 148.246 295.051 146.128 292.206 146.128C289.362 146.128 287.055 148.246 287.055 150.859C286.598 157.24 289.05 170.861 281.027 188.277C271.065 168.4 255.414 156.36 232.902 149.709C232.902 149.709 232.901 149.709 232.9 149.709C218.319 145.773 202.366 145.893 188.232 149.71C188.232 149.71 188.232 149.71 188.231 149.71C187.114 150.265 156.018 156.528 140.104 188.268C136.112 179.599 134.072 170.303 134.072 160.908V113.107C134.072 74.4389 168.315 42.8536 210.567 42.8536C252.753 42.8536 287.055 74.3821 287.055 113.107V132.365C287.055 134.978 289.362 137.096 292.206 137.096C295.051 137.096 297.358 134.978 297.358 132.365V113.107C297.358 108.168 296.862 103.333 295.922 98.6399C309.788 83.3775 315.839 69.9522 314.402 57.6517C313.06 46.1675 305.746 37.615 298.674 29.3438C293.921 23.7846 289.43 18.5346 287.108 12.7787C284.023 5.13582 276.083 0 267.349 0C255.776 0 246.36 8.64782 246.36 19.2778V40.4911C235.441 35.9325 223.321 33.3914 210.567 33.3914C197.812 33.3914 185.692 35.9325 174.772 40.4898V19.2778C174.773 8.64782 165.357 0 153.784 0C145.051 0 137.111 5.13582 134.025 12.7799C131.702 18.5359 127.213 23.7859 122.46 29.345C115.387 37.6162 108.074 46.1688 106.732 57.653C105.295 69.9515 111.343 83.375 125.206 98.6342C122.812 110.571 124.164 114.963 123.768 160.908C123.768 167.691 124.715 174.398 126.539 180.885C118.596 191.32 104.277 197.781 87.8199 205.202C83.6796 207.069 79.3978 209 75.1195 211.046C72.5967 212.254 71.6159 215.111 72.9305 217.429C74.2444 219.746 77.3551 220.647 79.8786 219.439C84.0478 217.445 88.2739 215.539 92.36 213.697C106.876 207.151 120.742 200.899 130.388 191.484C141.5 216.047 165.652 234.735 196.139 239.514V285.644C186.822 285.988 181.87 284.637 175.094 287.597C174.35 287.272 173.582 286.988 172.796 286.74V255.468C172.796 252.855 170.489 250.737 167.644 250.737C164.799 250.737 162.493 252.855 162.493 255.468V285.644C146.869 285.784 145.029 285.298 140.939 286.151V255.468C140.939 252.855 138.633 250.737 135.788 250.737C132.943 250.737 130.636 252.855 130.636 255.468V291.234C121.259 299.429 124.35 309.438 123.768 313.536H108.181C113.841 303.163 106.878 289.096 93.0441 286.165C91.8023 272.982 84.8136 265.478 78.8621 261.419C71.8789 256.657 65.0119 255.61 64.2522 255.506C61.4375 255.122 58.8179 256.907 58.4003 259.491C57.9827 262.076 59.9251 264.483 62.7391 264.867C62.7878 264.873 67.7482 265.626 72.7203 269.017C78.3277 272.841 81.6417 278.424 82.6212 285.643H68.2613C56.098 285.643 46.2026 294.732 46.2026 305.904V313.537H30.1984C25.69 313.537 22.0215 310.168 22.0215 306.027C22.0215 272.512 32.6642 246.985 63.2783 228.3C65.6479 226.854 66.2921 223.916 64.7179 221.741C63.1436 219.565 59.9457 218.972 57.5768 220.418C48.7982 225.776 41.4455 231.643 35.3669 238.141L29.0191 234.362C20.3195 229.185 8.65552 231.473 3.01858 239.462C-2.61973 247.453 -0.129232 258.166 8.57035 263.345ZM256.664 19.2778C256.664 13.8657 261.457 9.46289 267.35 9.46289C271.864 9.46289 275.828 12.0557 277.448 16.0686C280.331 23.215 285.537 29.3028 290.571 35.1899C302.645 49.3098 313.204 61.6621 292.653 87.1809C286.601 71.0322 274.307 55.7339 256.664 45.5575V19.2778ZM210.567 231.162C184.15 231.162 160.176 218.547 146.446 199.223C152.908 181.554 166.6 167.258 185.835 160.444C193.775 181.92 227.217 182.338 235.299 160.444C253.835 166.989 267.979 180.891 274.682 199.226C260.94 218.596 237.352 231.162 210.567 231.162ZM225.416 157.717C220.29 170.591 200.768 170.324 195.717 157.717C198.523 157.133 215.658 155.732 225.416 157.717ZM128.476 87.1746C107.93 61.6595 118.489 49.3092 130.562 35.1899C135.597 29.3021 140.802 23.215 143.686 16.0686C145.305 12.0557 149.269 9.46289 153.784 9.46289C159.676 9.46289 164.47 13.8657 164.47 19.2778V45.5537C146.981 55.6392 134.584 70.8745 128.476 87.1746ZM204.38 295.107C210.862 295.107 216.136 299.951 216.136 305.905C216.136 310.113 212.408 313.537 207.826 313.537H185.753C187.037 311.179 187.713 308.543 187.713 305.905C187.713 301.985 186.476 298.241 184.324 295.109C186.006 295.075 178.542 295.108 204.38 295.107ZM134.071 305.905C134.071 299.951 139.345 295.107 145.827 295.107H165.654C170.486 295.107 174.643 297.8 176.448 301.636C179.368 307.888 175.15 313.538 169.1 313.538H134.071V305.905ZM56.5053 305.905C56.5053 299.951 61.7789 295.107 68.2613 295.107H88.0878C94.5702 295.107 99.8438 299.951 99.8438 305.905C99.8438 310.113 96.1177 313.536 91.5371 313.537H56.5053V305.905ZM11.6632 244.609C14.1984 241.016 19.4644 239.954 23.4151 242.304L29.0892 245.682C25.8459 250.105 23.1102 254.808 20.9411 259.433L14.1729 255.404C10.2414 253.063 9.11571 248.22 11.6632 244.609Z" fill="black"/>
</svg>
